<svg width="24" height="25" viewBox="0 0 24 25" fill="none" xmlns="http://www.w3.org/2000/svg">
<path d="M19.1452 17.405H4.69257C4.27008 17.405 3.99245 16.9619 4.17444 16.5806C4.71579 15.4465 5.61617 13.497 5.61617 13.0777C5.61617 11.4533 5.61617 8.87859 5.61617 8.87859C5.61617 7.40364 5.97399 6.03634 6.62726 4.91284" stroke="#151515" stroke-width="1.8" stroke-linecap="square" stroke-linejoin="round"/>
<path d="M17.8882 12.0379C17.8882 10.3947 17.8882 8.87866 17.8882 8.87866C17.8882 5.05218 15.4799 1.9502 11.7523 1.9502C10.5953 1.9502 9.56551 2.24899 8.69531 2.77551" stroke="#151515" stroke-width="1.8" stroke-linecap="square" stroke-linejoin="round"/>
<path d="M4.61327 2.73145L21.0444 19.1625" stroke="#151515" stroke-width="1.8" stroke-linecap="square" stroke-linejoin="round"/>
<path d="M14.2452 17.4053V18.5685C14.2452 19.8535 13.1292 20.8951 11.7525 20.8951C10.3758 20.8951 9.25977 19.8535 9.25977 18.5685V17.4053" stroke="#151515" stroke-width="1.8" stroke-linecap="square" stroke-linejoin="round"/>
</svg>
