<svg width="24" height="25" viewBox="0 0 24 25" fill="none" xmlns="http://www.w3.org/2000/svg">
<path d="M1.9043 5.34021V3.99414C1.9043 2.50731 3.10961 1.302 4.59643 1.302H5.9425" stroke="#151515" stroke-width="1.8" stroke-linecap="square" stroke-linejoin="round"/>
<path d="M18.0575 1.302H19.4036C20.8904 1.302 22.0957 2.50731 22.0957 3.99414V5.34021" stroke="#151515" stroke-width="1.8" stroke-linecap="square" stroke-linejoin="round"/>
<path d="M1.9043 18.8004V20.1465C1.9043 21.6333 3.10961 22.8386 4.59643 22.8386H5.9425" stroke="#151515" stroke-width="1.8" stroke-linecap="square" stroke-linejoin="round"/>
<path d="M18.0575 22.8386H19.4036C20.8904 22.8386 22.0957 21.6333 22.0957 20.1465V18.8004" stroke="#151515" stroke-width="1.8" stroke-linecap="square" stroke-linejoin="round"/>
<path d="M7.28906 15.4355C7.92003 17.3461 9.54902 18.8007 12.3368 18.8007C15.1246 18.8007 16.7536 17.2995 17.3846 15.4355" stroke="#151515" stroke-width="1.8" stroke-linecap="square" stroke-linejoin="round"/>
<path d="M7.28964 6.68652V8.70562" stroke="#151515" stroke-width="1.8" stroke-linecap="square" stroke-linejoin="round"/>
<path d="M16.7115 6.68652V8.70562" stroke="#151515" stroke-width="1.8" stroke-linecap="square" stroke-linejoin="round"/>
<path d="M12.6734 9.37793L10.6543 11.397L12.6734 13.4161" stroke="#151515" stroke-width="1.8" stroke-linecap="square" stroke-linejoin="round"/>
</svg>
