<svg width="24" height="25" viewBox="0 0 24 25" fill="none" xmlns="http://www.w3.org/2000/svg">
<path fill-rule="evenodd" clip-rule="evenodd" d="M12.0192 1.94629C14.0265 1.94629 15.6537 3.47561 15.6537 5.36212V11.5106C15.6537 13.3971 14.0265 14.9265 12.0192 14.9265C10.012 14.9265 8.38477 13.3971 8.38477 11.5106V5.36212C8.38477 3.47561 10.012 1.94629 12.0192 1.94629Z" stroke="#151515" stroke-width="1.8" stroke-linecap="square" stroke-linejoin="round"/>
<path d="M18.7689 10.2539V11.5719C18.7689 15.1452 15.747 18.042 12.0192 18.042C8.29147 18.042 5.26953 15.1452 5.26953 11.5719V10.2539" stroke="#151515" stroke-width="1.8" stroke-linecap="square" stroke-linejoin="round"/>
<path d="M12.0194 18.0703C12.0194 18.0703 12.0194 19.4208 12.0194 20.1006C12.0194 20.7804 12.0194 21.1856 12.0194 21.1856" stroke="#151515" stroke-width="1.8" stroke-linecap="square" stroke-linejoin="round"/>
<path d="M8.9043 21.4455H15.1348" stroke="#151515" stroke-width="1.8" stroke-linecap="square" stroke-linejoin="round"/>
</svg>
