<svg width="24" height="25" viewBox="0 0 24 25" fill="none" xmlns="http://www.w3.org/2000/svg">
<path fill-rule="evenodd" clip-rule="evenodd" d="M4.65741 17.4051C4.23492 17.4051 3.95729 16.962 4.13928 16.5807C4.68063 15.4465 5.58102 13.4971 5.58102 13.0777C5.58102 11.4534 5.58102 8.87866 5.58102 8.87866C5.58102 5.05218 7.9893 1.9502 11.717 1.9502C15.4446 1.9502 17.8529 5.05218 17.8529 8.87866C17.8529 8.87866 17.8529 11.4345 17.8529 13.0777C17.8529 13.4845 18.7558 15.4441 19.2969 16.5819C19.4782 16.963 19.2006 17.4051 18.7786 17.4051H4.65741Z" stroke="#151515" stroke-width="1.8" stroke-linecap="square" stroke-linejoin="round"/>
<path d="M14.2101 17.4053V18.5685C14.2101 19.8535 13.094 20.8951 11.7173 20.8951C10.3406 20.8951 9.22461 19.8535 9.22461 18.5685V17.4053" stroke="#151515" stroke-width="1.8" stroke-linecap="square" stroke-linejoin="round"/>
</svg>
