<svg width="24" height="25" viewBox="0 0 24 25" fill="none" xmlns="http://www.w3.org/2000/svg">
<path d="M12.0281 22.6444C6.84171 20.2896 4.1084 16.5183 3.82812 11.3306C3.82812 8.35617 3.82812 6.18306 3.82812 4.81125C6.94383 4.81125 9.67714 3.70619 12.0281 1.49609C14.379 3.70619 17.0577 4.81125 20.1734 4.81125C20.1734 6.18306 20.1734 8.35617 20.1734 11.3306C19.8931 16.5183 17.1598 20.2896 11.9735 22.6444" stroke="#151515" stroke-width="1.8" stroke-linecap="square" stroke-linejoin="round"/>
<path fill-rule="evenodd" clip-rule="evenodd" d="M9.97923 11.5061H13.8913C14.7222 11.5061 15.3959 12.1517 15.3959 12.948V14.6784C15.3959 15.4747 14.7222 16.1203 13.8913 16.1203H9.97923C9.14825 16.1203 8.47461 15.4747 8.47461 14.6784V12.948C8.47461 12.1517 9.14825 11.5061 9.97923 11.5061Z" stroke="#151515" stroke-width="1.8" stroke-linecap="square" stroke-linejoin="round"/>
<path d="M10.0898 11.2753V9.28768C10.0898 8.34676 10.9162 7.58398 11.9355 7.58398C12.9549 7.58398 13.7812 8.34676 13.7812 9.28768V11.2753" stroke="#151515" stroke-width="1.8" stroke-linecap="square" stroke-linejoin="round"/>
</svg>
