<svg width="24" height="25" viewBox="0 0 24 25" fill="none" xmlns="http://www.w3.org/2000/svg">
<path fill-rule="evenodd" clip-rule="evenodd" d="M12 2.07031C12.6595 2.07031 13.3041 2.13513 13.9279 2.25884L14.8933 4.76532C15.2572 4.91091 15.6078 5.08315 15.943 5.27967L18.4731 4.48404C19.457 5.33293 20.2771 6.37171 20.8785 7.54462L19.5515 9.8747C19.6645 10.2486 19.7514 10.634 19.8099 11.029L22 12.5428C21.9601 13.8995 21.6584 15.1895 21.1445 16.3622L18.5216 16.761C18.3022 17.0864 18.0598 17.3946 17.7969 17.6831L17.997 20.369C16.9735 21.1488 15.7981 21.7339 14.5239 22.0703L12.5813 20.2355C12.3893 20.2497 12.1955 20.2569 12 20.2569C11.8045 20.2569 11.6107 20.2497 11.4188 20.2355L9.47599 22.0703C8.20183 21.7338 7.02641 21.1487 6.00296 20.3689L6.20364 17.6837C5.94048 17.395 5.69795 17.0866 5.47845 16.761L2.85555 16.3622C2.34158 15.1893 2.03988 13.8992 2 12.5423L4.19008 11.029C4.24858 10.6342 4.33538 10.2489 4.44833 9.87523L3.12121 7.54516C3.72271 6.37203 4.5429 5.33306 5.52687 4.48404L8.05704 5.27967C8.39217 5.08315 8.74283 4.91091 9.10669 4.76532L10.0726 2.25874C10.6963 2.1351 11.3407 2.07031 12 2.07031Z" stroke="#151515" stroke-width="1.8" stroke-linecap="square" stroke-linejoin="round"/>
<circle cx="12" cy="12.0703" r="3" stroke="#151515" stroke-width="1.8" stroke-linecap="square" stroke-linejoin="round"/>
</svg>
