<svg width="24" height="25" viewBox="0 0 24 25" fill="none" xmlns="http://www.w3.org/2000/svg">
<path d="M13.1881 10.8831C13.5396 11.2345 14.1095 11.2345 14.4609 10.8831C14.8124 10.5316 14.8124 9.96176 14.4609 9.61029L13.1881 10.8831ZM11.2693 18.6342L11.9057 17.9978L10.6329 16.725L9.99649 17.3614L11.2693 18.6342ZM5.34193 15.4426L9.90143 10.8831L8.62864 9.61028L4.06914 14.1698L5.34193 15.4426ZM9.99649 17.3614L8.62864 18.7293L9.90143 20.0021L11.2693 18.6342L9.99649 17.3614ZM4.06914 20.0021C5.67968 21.6126 8.29089 21.6126 9.90143 20.0021L8.62864 18.7293C7.72104 19.6369 6.24953 19.6369 5.34193 18.7293L4.06914 20.0021ZM9.90143 10.8831C10.809 9.97548 12.2805 9.97548 13.1881 10.8831L14.4609 9.61029C12.8504 7.99974 10.2392 7.99974 8.62864 9.61028L9.90143 10.8831ZM4.06914 14.1698C2.45859 15.7803 2.45859 18.3915 4.06914 20.0021L5.34193 18.7293C4.43433 17.8217 4.43433 16.3502 5.34193 15.4426L4.06914 14.1698Z" fill="#151515"/>
<path d="M10.8119 13.2575C10.4604 12.9061 9.89053 12.9061 9.53906 13.2575C9.18759 13.609 9.18759 14.1789 9.53906 14.5303L10.8119 13.2575ZM12.7307 5.50639L12.0943 6.14279L13.3671 7.41558L14.0035 6.77918L12.7307 5.50639ZM18.6581 8.69804L14.0986 13.2575L15.3714 14.5303L19.9309 9.97084L18.6581 8.69804ZM14.0035 6.77918L15.3714 5.41133L14.0986 4.13854L12.7307 5.50639L14.0035 6.77918ZM19.9309 4.13854C18.3203 2.528 15.7091 2.52799 14.0986 4.13854L15.3714 5.41133C16.279 4.50373 17.7505 4.50373 18.6581 5.41133L19.9309 4.13854ZM14.0986 13.2575C13.191 14.1651 11.7195 14.1651 10.8119 13.2575L9.53906 14.5303C11.1496 16.1409 13.7608 16.1409 15.3714 14.5303L14.0986 13.2575ZM19.9309 9.97084C21.5414 8.36029 21.5414 5.74908 19.9309 4.13854L18.6581 5.41133C19.5657 6.31893 19.5657 7.79044 18.6581 8.69804L19.9309 9.97084Z" fill="#151515"/>
</svg>
