<svg width="24" height="25" viewBox="0 0 24 25" fill="none" xmlns="http://www.w3.org/2000/svg">
<path d="M8 17.6345V16.3251C8 14.9654 8.86416 14.1699 10.2238 14.1699H11.4646H14.7486" stroke="#151515" stroke-width="1.8" stroke-linecap="square" stroke-linejoin="round"/>
<path d="M17.2656 17.6345V16.3251C17.2656 14.9654 16.4015 14.1699 15.0418 14.1699H13.801" stroke="#151515" stroke-width="1.8" stroke-linecap="square" stroke-linejoin="round"/>
<circle cx="12.6834" cy="9.07504" r="2.6893" stroke="#151515" stroke-width="1.8" stroke-linecap="square" stroke-linejoin="round"/>
<path fill-rule="evenodd" clip-rule="evenodd" d="M6.84314 1.89726L18.5143 1.89722C19.8871 1.89722 21 3.03587 21 4.44047V19.7C21 21.1046 19.8871 22.2433 18.5143 22.2433L6.84314 22.2433C5.47031 22.2433 4.35742 21.1046 4.35742 19.7V4.44052C4.35742 3.03592 5.47031 1.89726 6.84314 1.89726Z" stroke="#151515" stroke-width="1.8" stroke-linecap="square" stroke-linejoin="round"/>
<path d="M4.05859 11.7709H3.70633H2.26336" stroke="#151515" stroke-width="1.8" stroke-linecap="square" stroke-linejoin="round"/>
<path d="M4.05859 6.38514H3.70633H2.26336" stroke="#151515" stroke-width="1.8" stroke-linecap="square" stroke-linejoin="round"/>
<path d="M4.05859 17.1566H3.70633H2.26336" stroke="#151515" stroke-width="1.8" stroke-linecap="square" stroke-linejoin="round"/>
</svg>
