<svg width="24" height="25" viewBox="0 0 24 25" fill="none" xmlns="http://www.w3.org/2000/svg">
<g clip-path="url(#clip0_5_4399)">
<path d="M21.6968 8.97795C20.8016 6.02657 18.5501 3.51522 15.3858 2.38074C10.0724 0.475787 4.19726 3.17437 2.26334 8.40819" stroke="#151515" stroke-width="1.8" stroke-linecap="square" stroke-linejoin="round"/>
<path d="M4.30248 8.16948L2.06137 9.10653L1.11007 6.89898" stroke="#151515" stroke-width="1.8" stroke-linecap="square" stroke-linejoin="round"/>
<path d="M2.15479 15.5709C3.04995 18.5223 5.30145 21.0336 8.46579 22.1681C13.7792 24.073 19.6543 21.3745 21.5882 16.1406" stroke="#151515" stroke-width="1.8" stroke-linecap="square" stroke-linejoin="round"/>
<path d="M19.5491 16.3784L21.7902 15.4413L22.7415 17.6489" stroke="#151515" stroke-width="1.8" stroke-linecap="square" stroke-linejoin="round"/>
<path d="M8.00586 16.9636V15.6736C8.00586 14.7061 8.79012 13.9219 9.75756 13.9219H14.3749C15.3423 13.9219 16.1266 14.7061 16.1266 15.6736V16.9636" stroke="#151515" stroke-width="1.8" stroke-linecap="round" stroke-linejoin="round"/>
<circle cx="12.0659" cy="9.24166" r="2.37056" stroke="#151515" stroke-width="1.8" stroke-linecap="square" stroke-linejoin="round"/>
</g>
<defs>
<clipPath id="clip0_5_4399">
<rect width="24" height="24" fill="white" transform="translate(0 0.0703125)"/>
</clipPath>
</defs>
</svg>
