<svg width="24" height="25" viewBox="0 0 24 25" fill="none" xmlns="http://www.w3.org/2000/svg">
<path fill-rule="evenodd" clip-rule="evenodd" d="M16.5949 1.30566H4.20753C2.68723 1.30566 1.45478 2.52035 1.45478 4.01875V20.2972C1.45478 21.7956 2.68723 23.0103 4.20753 23.0103H16.5949C18.1152 23.0103 19.3477 21.7956 19.3477 20.2972V4.01875C19.3477 2.52035 18.1152 1.30566 16.5949 1.30566Z" stroke="#151515" stroke-width="1.8" stroke-linecap="square" stroke-linejoin="round"/>
<path d="M19.3972 4.10645C19.3972 4.10645 19.1268 4.10645 20.3431 4.10645C21.5593 4.10645 22.5453 5.16442 22.5453 6.4695V20.6478C22.5453 21.9529 21.5593 23.0109 20.3431 23.0109H15.6152" stroke="#151515" stroke-width="1.8" stroke-linecap="square" stroke-linejoin="round"/>
<ellipse cx="10.4538" cy="7.15883" rx="0.708352" ry="0.708352" transform="rotate(180 10.4538 7.15883)" stroke="#151515" stroke-width="1.8" stroke-linecap="square" stroke-linejoin="round"/>
<path d="M9.26962 10.6107H10.6592" stroke="#151515" stroke-width="1.8" stroke-linecap="square" stroke-linejoin="round"/>
<path d="M10.6677 10.6104V17.3202" stroke="#151515" stroke-width="1.8" stroke-linecap="square" stroke-linejoin="round"/>
</svg>
