<svg width="24" height="25" viewBox="0 0 24 25" fill="none" xmlns="http://www.w3.org/2000/svg">
<path d="M12.5234 13.1728C11.6947 12.344 11.6581 12.3085 11.6581 12.3085C10.0705 10.6618 9.21919 9.65133 8.29517 8.35211L8.10091 8.07649L9.02728 7.08747L9.04888 7.065C9.10343 7.00553 9.18552 6.89759 9.26521 6.75832L9.30303 6.68931C9.65472 6.0182 9.60186 5.23226 8.9341 4.51859L8.88896 4.47194L7.03199 2.16727L6.99073 2.12079C6.90395 2.02654 6.79123 1.92507 6.64584 1.82474C5.96223 1.35296 5.13993 1.32991 4.41643 2.05525L2.46714 4.06395L2.43076 4.10504C2.39631 4.14773 2.36774 4.19507 2.34591 4.24577C2.31275 4.32277 2.27382 4.44304 2.23855 4.60609C2.05997 5.43165 2.13386 6.53704 2.61781 7.90564L2.67247 8.05653C3.34625 9.87344 4.66503 11.9154 6.75919 14.1811L6.92093 14.3546L6.95258 14.3923C7.02379 14.4758 7.09612 14.5528 7.19096 14.6476L7.35145 14.805L8.07467 15.5382L9.15506 16.6086L9.31242 16.7691C9.40724 16.8639 9.48431 16.9363 9.56777 17.0075L9.60544 17.0391L9.77892 17.2009C12.0447 19.295 14.0866 20.6138 15.9035 21.2876L16.0544 21.3422C17.423 21.8262 18.5284 21.9001 19.354 21.7215C19.517 21.6862 19.6373 21.6473 19.7143 21.6141C19.765 21.5923 19.8123 21.5637 19.855 21.5293L19.8961 21.4929L21.9048 19.5436C22.6301 18.8201 22.6071 17.9978 22.1353 17.3142C22.035 17.1688 21.9335 17.0561 21.8393 16.9693L21.7928 16.9281L19.4881 15.0711L19.4415 15.026C18.7278 14.3582 17.9419 14.3053 17.2707 14.657L17.2017 14.6948C17.0625 14.7745 16.9545 14.8566 16.8951 14.9112L16.8726 14.9328L16.1309 15.5894L15.9035 15.8172" stroke="#151515" stroke-width="1.8" stroke-linecap="square" stroke-linejoin="round"/>
</svg>
