<svg width="24" height="25" viewBox="0 0 24 25" fill="none" xmlns="http://www.w3.org/2000/svg">
<g clip-path="url(#clip0_5_4421)">
<path fill-rule="evenodd" clip-rule="evenodd" d="M18.5414 17.3408H21.4065C22.0151 17.3408 22.5084 17.8774 22.5084 18.5393V19.9775C22.5084 20.6394 22.0151 21.1759 21.4065 21.1759H18.5414C17.9328 21.1759 17.4395 20.6394 17.4395 19.9775V18.5393C17.4395 17.8774 17.9328 17.3408 18.5414 17.3408Z" stroke="#151515" stroke-width="1.8" stroke-linecap="square" stroke-linejoin="round"/>
<path d="M18.5332 17.2184V15.8451C18.5332 15.1108 19.178 14.5156 19.9734 14.5156C20.7688 14.5156 21.4136 15.1108 21.4136 15.8451V17.2184" stroke="#151515" stroke-width="1.8" stroke-linecap="square" stroke-linejoin="round"/>
<path d="M11.6461 18.3533C11.8786 18.5859 11.8786 18.9629 11.6461 19.1955C11.4135 19.4281 11.0365 19.4281 10.8039 19.1955C10.5713 18.9629 10.5713 18.5859 10.8039 18.3533C11.0365 18.1208 11.4135 18.1208 11.6461 18.3533Z" stroke="#151515" stroke-width="1.8" stroke-linecap="square" stroke-linejoin="round"/>
<path d="M15.4107 14.6631C13.1394 12.3918 9.45685 12.3918 7.18555 14.6631" stroke="#151515" stroke-width="1.8" stroke-linecap="square" stroke-linejoin="round"/>
<path d="M18.2573 11.8164C14.4136 7.97266 8.18163 7.97266 4.33789 11.8164" stroke="#151515" stroke-width="1.8" stroke-linecap="square" stroke-linejoin="round"/>
<path d="M21.104 8.96802C15.6878 3.55184 6.90641 3.55184 1.49023 8.96802" stroke="#151515" stroke-width="1.8" stroke-linecap="square" stroke-linejoin="round"/>
</g>
<defs>
<clipPath id="clip0_5_4421">
<rect width="24" height="24" fill="white" transform="translate(0 0.0703125)"/>
</clipPath>
</defs>
</svg>
