<svg width="24" height="25" viewBox="0 0 24 25" fill="none" xmlns="http://www.w3.org/2000/svg">
<path d="M13.3249 3.89261L7.68125 8.09973L4.47329 8.09994C3.82179 8.09994 3.49745 8.16258 3.16011 8.34299C2.85089 8.50836 2.60569 8.75356 2.44031 9.06279C2.26742 9.38607 2.20269 9.69742 2.1976 10.2962L2.19727 13.8392C2.19727 14.4908 2.2599 14.8151 2.44031 15.1524C2.60569 15.4617 2.85089 15.7069 3.16011 15.8722L3.20223 15.8942C3.52505 16.0578 3.84894 16.1153 4.4733 16.1153L7.6513 16.1151L13.3308 20.2922C13.5236 20.434 13.7566 20.5105 13.9959 20.5105C14.616 20.5105 15.1186 20.0078 15.1186 19.3878V4.79269C15.1186 4.55086 15.0406 4.3155 14.896 4.12163C14.5254 3.62454 13.822 3.522 13.3249 3.89261Z" stroke="#151515" stroke-width="1.8" stroke-linecap="square" stroke-linejoin="round"/>
<path d="M18.5684 17.3584C21.0504 16.6793 22.8028 14.4154 22.8028 11.8048C22.8028 9.21715 21.0807 6.96805 18.6287 6.26817" stroke="#151515" stroke-width="1.8" stroke-linecap="square" stroke-linejoin="round"/>
<path d="M17.9102 14.459C18.8396 13.9047 19.4215 12.9024 19.4215 11.7998C19.4215 10.7173 18.8608 9.73077 17.9586 9.17002" stroke="#151515" stroke-width="1.8" stroke-linecap="square" stroke-linejoin="round"/>
</svg>
