<svg width="24" height="25" viewBox="0 0 24 25" fill="none" xmlns="http://www.w3.org/2000/svg">
<path d="M16.9497 12.1062H21.7441M16.9497 12.1062C16.9497 11.3357 16.6436 10.5967 16.0987 10.0519C15.5539 9.50699 14.8149 9.20089 14.0443 9.20089C13.2738 9.20089 12.5348 9.50699 11.9899 10.0519C11.4451 10.5967 11.139 11.3357 11.139 12.1062C11.139 12.8768 11.4451 13.6158 11.9899 14.1606C12.5348 14.7055 13.2738 15.0116 14.0443 15.0116C14.8149 15.0116 15.5539 14.7055 16.0987 14.1606C16.6436 13.6158 16.9497 12.8768 16.9497 12.1062ZM4.73739 20.8223V23.0013M19.2642 20.8223V23.0013M3.28471 1.9375H20.7169C21.1021 1.9375 21.4716 2.09055 21.7441 2.36298C22.0165 2.63541 22.1695 3.0049 22.1695 3.39018V19.3696C22.1695 19.7549 22.0165 20.1244 21.7441 20.3968C21.4716 20.6693 21.1021 20.8223 20.7169 20.8223H3.28471C2.89944 20.8223 2.52994 20.6693 2.25751 20.3968C1.98508 20.1244 1.83203 19.7549 1.83203 19.3696V3.39018C1.83203 3.0049 1.98508 2.63541 2.25751 2.36298C2.52994 2.09055 2.89944 1.9375 3.28471 1.9375Z" stroke="#151515" stroke-width="1.8" stroke-linejoin="round"/>
</svg>
