<svg width="24" height="25" viewBox="0 0 24 25" fill="none" xmlns="http://www.w3.org/2000/svg">
<path d="M19.5 9.57031H15V5.07031C14.9994 4.47376 14.7622 3.90181 14.3403 3.47998C13.9185 3.05815 13.3466 2.82091 12.75 2.82031H11.1502C10.7896 2.82184 10.4415 2.95261 10.169 3.18888C9.89655 3.42515 9.71782 3.75128 9.66525 4.10806L9.0315 8.54581L6.34875 12.5703H1.5V23.0703H17.25C18.6418 23.0683 19.976 22.5146 20.9601 21.5304C21.9443 20.5463 22.498 19.2121 22.5 17.8203V12.5703C22.499 11.775 22.1826 11.0125 21.6202 10.4501C21.0578 9.88769 20.2953 9.5713 19.5 9.57031ZM6 21.5703H3V14.0703H6V21.5703ZM21 17.8203C20.9988 18.8145 20.6033 19.7676 19.9003 20.4706C19.1973 21.1737 18.2442 21.5691 17.25 21.5703H7.5V13.5476L10.4685 9.09481L11.151 4.32031H12.75C12.9489 4.32031 13.1397 4.39933 13.2803 4.53998C13.421 4.68063 13.5 4.8714 13.5 5.07031V11.0703H19.5C19.8976 11.0709 20.2788 11.2291 20.56 11.5103C20.8412 11.7915 20.9994 12.1727 21 12.5703V17.8203Z" fill="black"/>
</svg>
