<svg width="24" height="25" viewBox="0 0 24 25" fill="none" xmlns="http://www.w3.org/2000/svg">
<path d="M1.5 12.5703H5.25V23.0703H1.5V12.5703ZM17.25 23.0703H6.75V11.9681L9.0315 8.54581L9.66525 4.10806C9.71784 3.75115 9.89668 3.42493 10.1693 3.18864C10.4419 2.95235 10.7902 2.82166 11.151 2.82031H11.25C11.8466 2.82091 12.4185 3.05815 12.8403 3.47998C13.2622 3.90181 13.4994 4.47376 13.5 5.07031V9.57031H19.5C20.2953 9.5713 21.0578 9.88769 21.6202 10.4501C22.1826 11.0125 22.499 11.775 22.5 12.5703V17.8203C22.498 19.2121 21.9443 20.5463 20.9601 21.5304C19.976 22.5146 18.6418 23.0683 17.25 23.0703Z" fill="black"/>
</svg>
