<svg width="24" height="25" viewBox="0 0 24 25" fill="none" xmlns="http://www.w3.org/2000/svg">
<ellipse cx="11.1537" cy="13.8947" rx="3.38589" ry="3.04051" transform="rotate(-6.16391 11.1537 13.8947)" stroke="#151515" stroke-width="1.8" stroke-linecap="square" stroke-linejoin="round"/>
<path d="M14.5449 1.35254V13.8668" stroke="#151515" stroke-width="1.8" stroke-linecap="square" stroke-linejoin="round"/>
<path d="M17.7393 16.9375C17.3953 17.692 16.9129 18.3988 16.2921 19.0197C15.6712 19.6405 14.9644 20.1229 14.2099 20.4669" stroke="#151515" stroke-width="1.8" stroke-linecap="square" stroke-linejoin="round"/>
<path d="M4.75979 11.0168C5.1038 10.2623 5.58621 9.55549 6.20704 8.93466C6.82787 8.31383 7.53469 7.83142 8.28917 7.48741" stroke="#151515" stroke-width="1.8" stroke-linecap="square" stroke-linejoin="round"/>
<path d="M20.5529 17.7208C20.2281 18.9541 19.6225 20.0431 18.7194 20.9179C17.8164 21.7927 16.6923 22.3795 15.4192 22.6941" stroke="#151515" stroke-width="1.8" stroke-linecap="square" stroke-linejoin="round"/>
<path d="M1.94734 9.64306C2.27208 8.40979 2.87775 7.32078 3.78077 6.44598C4.68379 5.57118 5.80792 4.98443 7.08098 4.66985" stroke="#151515" stroke-width="1.8" stroke-linecap="square" stroke-linejoin="round"/>
<path d="M14.5859 1.35254C14.5859 1.35254 15.392 5.1584 17.6773 6.2453C19.6956 7.22482 19.8954 9.61164 19.8954 9.61164" stroke="#151515" stroke-width="1.8" stroke-linecap="square" stroke-linejoin="round"/>
</svg>
