<svg width="24" height="25" viewBox="0 0 24 25" fill="none" xmlns="http://www.w3.org/2000/svg">
<path d="M12.957 19.9131L19.2359 13.6342C21.6974 11.1727 21.7228 7.20721 19.2927 4.77709C16.8626 2.34696 12.8971 2.37241 10.4356 4.83392L6.66406 8.60547L6.38382 8.88571L6.36743 8.9021L6.18365 9.08589L3.48968 11.7798C1.73146 13.5381 1.73887 16.3961 3.50623 18.1635C5.2736 19.9309 8.13165 19.9383 9.88988 18.18L12.7676 15.3023L15.2151 12.8548L15.2249 12.845L12.784 15.2859L16.9516 11.1184C18.0065 10.0634 17.9662 8.31276 16.8616 7.20816C15.757 6.10356 14.0064 6.06329 12.9514 7.11823L11.3351 8.73461L6.36874 13.7009" stroke="#151515" stroke-width="1.8" stroke-linecap="square" stroke-linejoin="round"/>
</svg>
