<svg width="24" height="25" viewBox="0 0 24 25" fill="none" xmlns="http://www.w3.org/2000/svg">
<path d="M17.6719 14.7697C17.6719 14.7697 16.6574 10.2038 12.2296 10.0362C6.65077 9.84959 5.55799 16.2991 7.64045 19.6906C8.5663 21.1475 8.49345 21.0383 8.49345 21.0383" stroke="#151515" stroke-width="1.8" stroke-linecap="square" stroke-linejoin="round"/>
<path d="M13.6721 22.6975C13.6721 22.6975 10.2415 20.0443 9.47746 16.9559C8.71342 13.8675 11.3409 12.9375 11.3409 12.9375C11.3409 12.9375 13.9715 12.4577 14.9004 15.5218C15.6114 17.4416 16.9616 18.0188 18.1021 17.9005C20.0357 17.5909 20.8203 15.709 20.2389 13.5164C19.6575 11.3239 18.1021 7.45707 12.0638 7.27934C5.36506 7.19929 4.02117 11.8386 3.70264 12.9375C3.38411 14.0365 3.1146 15.5218 3.70264 18.4951" stroke="#151515" stroke-width="1.8" stroke-linecap="square" stroke-linejoin="round"/>
<path d="M20.4248 7.53455C20.4248 7.53455 17.7676 4.52972 12.3086 4.52972C6.65779 4.39201 3.9043 7.82852 3.9043 7.82852" stroke="#151515" stroke-width="1.8" stroke-linecap="square" stroke-linejoin="round"/>
<path d="M17.1213 2.32207C16.6771 2.11908 15.0338 1.09378 11.5393 1.23379C10.1102 1.29105 8.93044 1.40975 7.20898 2.32207" stroke="#151515" stroke-width="1.8" stroke-linecap="square" stroke-linejoin="round"/>
<path d="M11.8809 15.4717C11.8809 15.4717 12.2028 16.541 12.9144 17.4459C13.626 18.3507 15.159 19.2182 15.159 19.2182" stroke="#151515" stroke-width="1.8" stroke-linecap="square" stroke-linejoin="round"/>
</svg>
