<svg width="24" height="25" viewBox="0 0 24 25" fill="none" xmlns="http://www.w3.org/2000/svg">
<path fill-rule="evenodd" clip-rule="evenodd" d="M3.98047 8.44652L3.98047 6.20128C3.98047 4.95594 5.00681 3.94663 6.27287 3.94663L8.18807 3.94663C9.45413 3.94663 10.4805 4.95594 10.4805 6.20129L10.4805 8.44652C10.4805 9.69186 9.45413 10.7012 8.18807 10.7012L6.27287 10.7012C5.00681 10.7012 3.98047 9.69186 3.98047 8.44652Z" stroke="#151515" stroke-width="1.8" stroke-linecap="square" stroke-linejoin="round"/>
<path fill-rule="evenodd" clip-rule="evenodd" d="M3.98047 17.9397L3.98047 15.6944C3.98047 14.4491 5.00681 13.4398 6.27287 13.4398L8.18807 13.4398C9.45413 13.4398 10.4805 14.4491 10.4805 15.6945L10.4805 17.9397C10.4805 19.185 9.45413 20.1943 8.18807 20.1943L6.27287 20.1943C5.00681 20.1943 3.98047 19.185 3.98047 17.9397Z" stroke="#151515" stroke-width="1.8" stroke-linecap="square" stroke-linejoin="round"/>
<path fill-rule="evenodd" clip-rule="evenodd" d="M13.5195 8.44652L13.5195 6.20128C13.5195 4.95594 14.5459 3.94663 15.8119 3.94663L17.7271 3.94663C18.9932 3.94663 20.0195 4.95594 20.0195 6.20129L20.0195 8.44652C20.0195 9.69186 18.9932 10.7012 17.7271 10.7012L15.8119 10.7012C14.5459 10.7012 13.5195 9.69186 13.5195 8.44652Z" stroke="#151515" stroke-width="1.8" stroke-linecap="square" stroke-linejoin="round"/>
<path fill-rule="evenodd" clip-rule="evenodd" d="M13.5195 17.9397L13.5195 15.6944C13.5195 14.4491 14.5459 13.4398 15.8119 13.4398L17.7271 13.4398C18.9932 13.4398 20.0195 14.4491 20.0195 15.6945L20.0195 17.9397C20.0195 19.185 18.9932 20.1943 17.7271 20.1943L15.8119 20.1943C14.5459 20.1943 13.5195 19.185 13.5195 17.9397Z" stroke="#151515" stroke-width="1.8" stroke-linecap="square" stroke-linejoin="round"/>
</svg>
