<svg width="24" height="25" viewBox="0 0 24 25" fill="none" xmlns="http://www.w3.org/2000/svg">
<path d="M1.5 2.07031H5.25V12.5703H1.5V2.07031ZM17.25 2.07031H6.75V13.1726L9.0315 16.5948L9.66525 21.0326C9.71784 21.3895 9.89668 21.7157 10.1693 21.952C10.4419 22.1883 10.7902 22.319 11.151 22.3203H11.25C11.8466 22.3197 12.4185 22.0825 12.8403 21.6606C13.2622 21.2388 13.4994 20.6669 13.5 20.0703V15.5703H19.5C20.2953 15.5693 21.0578 15.2529 21.6202 14.6905C22.1826 14.1281 22.499 13.3657 22.5 12.5703V7.32031C22.498 5.92853 21.9443 4.59433 20.9601 3.61019C19.976 2.62606 18.6418 2.0723 17.25 2.07031Z" fill="black"/>
</svg>
