<svg width="24" height="25" viewBox="0 0 24 25" fill="none" xmlns="http://www.w3.org/2000/svg">
<path d="M21.6711 12.0699V6.67516H4.40789C3.83559 6.67516 3.28672 6.44782 2.88203 6.04313C2.47735 5.63845 2.25 5.08958 2.25 4.51727C2.25 3.94496 2.47735 3.39609 2.88203 2.99141C3.28672 2.58672 3.83559 2.35938 4.40789 2.35938H19.5132V6.67516" stroke="#151515" stroke-width="1.8" stroke-linecap="round" stroke-linejoin="round"/>
<path d="M2.25 4.51758V19.6228C2.25 20.1952 2.47735 20.744 2.88203 21.1487C3.28672 21.5534 3.83559 21.7807 4.40789 21.7807H21.6711V16.386" stroke="#151515" stroke-width="1.8" stroke-linecap="round" stroke-linejoin="round"/>
<path d="M18.4333 12.0703C17.861 12.0703 17.3121 12.2977 16.9074 12.7023C16.5027 13.107 16.2754 13.6559 16.2754 14.2282C16.2754 14.8005 16.5027 15.3494 16.9074 15.7541C17.3121 16.1588 17.861 16.3861 18.4333 16.3861H22.7491V12.0703H18.4333Z" stroke="#151515" stroke-width="1.8" stroke-linecap="round" stroke-linejoin="round"/>
</svg>
