<svg width="24" height="25" viewBox="0 0 24 25" fill="none" xmlns="http://www.w3.org/2000/svg">
<path d="M10.7826 14.6327C10.0489 13.899 10.0165 13.8675 10.0165 13.8675C8.61096 12.4097 7.85729 11.5151 7.03924 10.3649L6.86726 10.1209L7.68739 9.24528L7.70652 9.22539C7.75481 9.17274 7.82749 9.07718 7.89804 8.95388L7.93152 8.89278C8.24287 8.29864 8.19608 7.60283 7.6049 6.97101L7.56493 6.92971L5.92092 4.88935L5.8844 4.8482C5.80758 4.76476 5.70778 4.67493 5.57907 4.5861C4.97386 4.16843 4.24586 4.14802 3.60533 4.79018L1.8796 6.56851L1.84739 6.60489C1.81689 6.64268 1.79159 6.68459 1.77227 6.72948C1.74291 6.79765 1.70845 6.90412 1.67722 7.04848C1.51912 7.77935 1.58454 8.75797 2.01299 9.96962L2.06138 10.1032C2.65789 11.7117 3.82542 13.5195 5.67941 15.5254L5.82261 15.679L5.85062 15.7124C5.91367 15.7862 5.97771 15.8545 6.06166 15.9384L6.20375 16.0777L6.84402 16.7269L7.80052 17.6745L7.93983 17.8166C8.02378 17.9005 8.092 17.9646 8.16589 18.0276L8.19925 18.0556L8.35283 18.1988C10.3588 20.0528 12.1665 21.2204 13.775 21.8169L13.9086 21.8653C15.1203 22.2937 16.0989 22.3591 16.8298 22.201C16.9741 22.1698 17.0806 22.1353 17.1488 22.106C17.1937 22.0867 17.2356 22.0614 17.2734 22.0309L17.3097 21.9986L19.0881 20.2729C19.7302 19.6324 19.7098 18.9044 19.2921 18.2992C19.2033 18.1705 19.1135 18.0707 19.0301 17.9938L18.9889 17.9573L16.9485 16.3133L16.9072 16.2733C16.2754 15.6822 15.5796 15.6354 14.9855 15.9467L14.9244 15.9802C14.8011 16.0508 14.7055 16.1234 14.6529 16.1717L14.633 16.1909L13.9763 16.7722L13.775 16.9739" stroke="#151515" stroke-width="1.8" stroke-linecap="square" stroke-linejoin="round"/>
<path d="M14.0573 8.43652V10.4552" stroke="#151515" stroke-width="1.8" stroke-linecap="square" stroke-linejoin="round"/>
<path d="M17.403 5.54517V10.4553" stroke="#151515" stroke-width="1.8" stroke-linecap="square" stroke-linejoin="round"/>
<path d="M20.7487 2.93359V10.4554" stroke="#151515" stroke-width="1.8" stroke-linecap="square" stroke-linejoin="round"/>
</svg>
