<svg width="24" height="25" viewBox="0 0 24 25" fill="none" xmlns="http://www.w3.org/2000/svg">
<path d="M22.5 12.5703V7.32031C22.498 5.92853 21.9443 4.59433 20.9601 3.61019C19.976 2.62606 18.6418 2.0723 17.25 2.07031H1.5V12.5703H6.34875L9.0315 16.5948L9.666 21.0326C9.71857 21.3894 9.8973 21.7155 10.1698 21.9517C10.4422 22.188 10.7904 22.3188 11.151 22.3203H12.75C13.3466 22.3197 13.9185 22.0825 14.3403 21.6606C14.7622 21.2388 14.9994 20.6669 15 20.0703V15.5703H19.5C20.2953 15.5693 21.0578 15.2529 21.6202 14.6905C22.1826 14.1281 22.499 13.3657 22.5 12.5703ZM6 11.0703H3V3.57031H6V11.0703ZM21 12.5703C20.9994 12.968 20.8412 13.3491 20.56 13.6303C20.2788 13.9115 19.8976 14.0697 19.5 14.0703H13.5V20.0703C13.5 20.2692 13.421 20.46 13.2803 20.6006C13.1397 20.7413 12.9489 20.8203 12.75 20.8203H11.1502L10.4677 16.0458L7.5 11.5931V3.57031H17.25C18.2442 3.5715 19.1973 3.96697 19.9003 4.66998C20.6033 5.37298 20.9988 6.32612 21 7.32031V12.5703Z" fill="black"/>
</svg>
