<svg width="161" height="25" viewBox="0 0 161 25" fill="none" xmlns="http://www.w3.org/2000/svg">
<path d="M8.46671 8.66077L10.4717 7.59824C10.4717 7.59824 10.6054 7.5097 10.5163 7.33261C10.4272 7.15552 9.35783 4.54347 5.25868 4.67628C1.15953 4.8091 0.0010745 7.90815 0.0010745 9.4134V13.7078C0.0010745 13.7078 -0.266261 18.5777 5.30323 18.8876C5.30323 18.8876 9.22416 19.1975 10.5608 16.187C10.5608 16.187 10.6499 16.0542 10.4717 15.9214L8.33304 14.8589C8.33304 14.8589 8.19937 14.7703 8.0657 14.9474C7.97659 15.1688 7.39736 16.4084 5.57057 16.4084C3.74377 16.4084 2.76354 15.0802 2.76354 13.7963V9.7233C2.76354 9.7233 2.76354 7.11125 5.57057 7.11125C7.30825 7.11125 7.88748 8.21805 8.0657 8.6165C8.11026 8.66077 8.19937 8.88213 8.46671 8.66077Z" fill="#597786"/>
<path d="M17.0653 4.7207C11.5404 4.7207 11.4513 9.59063 11.4513 9.85627V13.7079C11.4513 13.7079 11.3621 18.8435 17.0207 18.8435C22.5457 18.8435 22.5902 13.9736 22.5902 13.7079V9.85627C22.6348 9.85627 22.6794 4.7207 17.0653 4.7207ZM19.8278 13.8408C19.8278 14.9033 19.0703 16.4528 17.0207 16.4528C15.0157 16.4528 14.2137 14.9033 14.2137 13.8408V9.76772C14.2137 9.05937 14.7038 7.15567 17.0207 7.15567C18.1792 7.15567 18.8921 7.64266 19.2931 8.2182C19.6941 8.79374 19.8278 9.41355 19.8278 9.81199V13.8408Z" fill="#597786"/>
<path d="M55.9192 4.67615C55.9192 4.67615 54.2261 4.63188 51.7755 5.51732L51.4191 5.65013C51.33 5.69441 51.2854 5.78295 51.33 5.87149L52.0429 7.86374C52.0429 7.86374 52.0874 8.0851 52.3547 7.95228C52.6221 7.86374 54.1815 7.11111 55.9638 7.11111C58.2361 7.11111 58.6817 8.52782 58.6817 10.2102C58.6817 10.2102 57.3896 9.14763 55.5182 9.14763C52.8894 9.14763 50.4834 10.83 50.4834 14.0176C50.4834 16.0098 51.6419 18.8875 55.5628 18.8875C55.5628 18.8875 57.3896 18.976 58.8154 17.7807V18.4448C58.8154 18.4448 58.8154 18.5776 58.949 18.5776C59.0827 18.5776 61.0877 18.5776 61.0877 18.5776C61.0877 18.5776 61.2214 18.5776 61.2214 18.4448C61.2214 18.312 61.2214 9.76744 61.2214 9.76744C61.2214 9.76744 61.1768 4.67615 55.9192 4.67615ZM55.8301 16.5411C54.4934 16.5411 53.2013 15.6114 53.2013 14.0176C53.2013 12.8665 53.9588 11.4941 55.8301 11.4941C58.1025 11.4941 58.6371 13.1321 58.6371 13.929C58.6371 15.0801 57.9242 16.5411 55.8301 16.5411Z" fill="#597786"/>
<path d="M74.588 9.85586V18.4446C74.588 18.5332 74.4988 18.666 74.3652 18.666H71.9146C71.8255 18.666 71.6918 18.5775 71.6918 18.4446V9.76731C71.6918 8.70478 70.9344 7.15526 68.8848 7.15526C66.8352 7.15526 66.0778 8.70478 66.0778 9.76731V18.4446C66.0778 18.5332 65.9887 18.666 65.855 18.666H63.4044C63.3153 18.666 63.1816 18.5775 63.1816 18.4446V5.11874C63.1816 5.0302 63.2708 4.89738 63.4044 4.89738H65.6768C65.7659 4.89738 65.8104 4.98593 65.8104 5.11874V6.04846C67.2362 4.49893 69.5531 4.63175 69.5531 4.63175C72.5384 4.72029 74.588 6.75681 74.588 9.85586Z" fill="#597786"/>
<path d="M88.9349 4.76481H88.623C88.0883 4.76481 86.8853 4.98617 85.9496 5.96016C85.9496 5.96016 84.6575 4.67627 81.9396 4.67627C78.8207 4.67627 76.3701 6.5357 76.3701 9.59047C76.3701 10.653 76.7266 12.5124 78.4643 13.7078C78.4643 13.7078 76.4592 14.6375 76.4592 17.2053V18.4006C76.4592 18.4892 76.5483 18.622 76.682 18.622H84.7466C85.7714 18.622 86.3952 19.4189 86.3952 20.2158C86.3952 20.2158 86.5289 21.4111 84.8803 22.3408C84.8803 22.3408 84.7466 22.4294 84.8357 22.6065C84.9249 22.7393 85.9496 24.5544 85.9496 24.5544C85.9496 24.5544 86.0388 24.6873 86.217 24.5987C86.217 24.5987 88.9349 23.4034 88.9349 20.2158C88.9349 18.7105 87.9101 16.2756 84.8357 16.2756H79.2663C79.2663 16.2756 79.489 14.6375 81.5386 14.6375H82.2515C85.4595 14.6375 87.6873 12.5124 87.6873 9.8561C87.6873 9.8561 87.7319 8.57221 87.2418 7.50968C87.2418 7.50968 87.9992 6.97842 89.0686 7.06696C89.0686 7.06696 89.2913 7.06696 89.2913 6.8456V4.80909C89.1131 4.89763 89.024 4.76481 88.9349 4.76481ZM81.8951 12.2468C80.4693 12.2468 79.2217 11.3171 79.2217 9.72329C79.2217 8.57221 80.0237 7.19978 81.8951 7.19978C84.212 7.19978 84.7466 8.83785 84.7466 9.63474C84.8357 10.8301 84.1229 12.2468 81.8951 12.2468Z" fill="#597786"/>
<path d="M35.4672 4.98601H33.0167C32.9275 4.98601 32.7939 5.07455 32.7939 5.20737V13.8847C32.7939 14.9472 32.0364 16.4968 29.9869 16.4968C27.9818 16.4968 27.1798 14.9472 27.1798 13.8847V5.11882C27.1798 5.03028 27.0907 4.89746 27.0462 4.89746H24.5956C24.5065 4.89746 24.4619 4.98601 24.4619 5.11882V13.7076C24.4619 16.8067 26.5115 18.8432 29.274 18.8432C29.274 18.8432 31.6354 18.976 33.0167 17.4265V18.4005C33.0167 18.489 33.1058 18.6218 33.2394 18.6218H35.5118C35.6009 18.6218 35.6455 18.5333 35.6455 18.4005V5.11882C35.6455 5.03028 35.5563 4.98601 35.4672 4.98601Z" fill="#597786"/>
<path d="M44.0218 4.7207C42.2841 4.7207 41.1702 5.38478 40.4127 6.13741V5.11915C40.4127 5.03061 40.3236 4.89779 40.2791 4.89779H38.0067C37.9176 4.94206 37.873 5.03061 37.873 5.11915V24.1119C37.873 24.2004 37.9622 24.2447 38.0067 24.2447H40.4573C40.5464 24.2447 40.591 24.2004 40.591 24.1119C40.591 24.1119 40.6355 20.7915 40.591 17.6482C41.3484 18.3565 42.5514 18.8878 44.0663 18.8878C45.5812 18.8878 46.7842 18.3565 47.6308 17.4268C48.4774 16.4971 48.9675 15.2132 48.9675 13.7522V9.90054C48.9675 7.1114 47.3189 4.7207 44.0218 4.7207ZM46.1605 13.7965C46.1605 14.859 45.403 16.4085 43.3534 16.4085C41.3484 16.4085 40.5464 14.859 40.5464 13.7965V9.72345C40.5464 9.0151 41.0365 7.1114 43.3534 7.1114C44.5119 7.1114 45.2248 7.55412 45.6258 8.17393C46.0268 8.70519 46.1605 9.36927 46.1605 9.76772V13.7965Z" fill="#597786"/>
<path d="M156.149 15.5429H154.55L154.985 11.8423H151.684L151.857 10.3482H155.158L155.575 6.69971H157.156L156.739 10.3482H160.058L159.884 11.8423H156.566L156.149 15.5429Z" fill="#F76800"/>
<path d="M147.644 6.58388C147.644 6.65338 147.488 7.8985 147.175 10.3192H149.857L149.729 11.657H147.002L146.949 12.0914C148.305 13.2264 148.982 14.4658 148.982 15.8093C148.982 16.8633 148.71 17.622 148.166 18.0853C147.633 18.5486 146.99 18.7802 146.237 18.7802C145.484 18.7802 144.934 18.5833 144.587 18.1895C144.239 17.7842 144.065 17.2977 144.065 16.7301C144.065 16.6027 144.077 16.4637 144.1 16.3132L144.639 11.6918L144.569 11.657H143.162C143.15 11.5412 143.145 11.3559 143.145 11.1011C143.145 10.8347 143.197 10.5741 143.301 10.3192H144.795L145.351 5.59358C145.594 5.50092 145.919 5.45459 146.324 5.45459C147.204 5.45459 147.644 5.83102 147.644 6.58388ZM147.818 15.792C147.818 14.9928 147.471 14.2052 146.776 13.4291C146.567 15.1549 146.463 16.151 146.463 16.4174C146.463 16.9386 146.631 17.1992 146.967 17.1992C147.21 17.1992 147.413 17.0892 147.575 16.8691C147.737 16.6375 147.818 16.2784 147.818 15.792Z" fill="#F76800"/>
<path d="M141.012 12.7864C141.012 12.0335 140.676 11.6571 140.004 11.6571C139.506 11.6571 139.06 11.9409 138.666 12.5084C138.249 13.1223 138.041 13.8404 138.041 14.6628C138.041 15.4851 138.22 16.1222 138.58 16.5739C138.95 17.014 139.454 17.2341 140.091 17.2341C140.855 17.2341 141.66 16.9214 142.506 16.2959C143.363 15.6704 144.052 14.8944 144.573 13.9678C144.805 14.1416 145.031 14.4601 145.251 14.9234C144.915 15.5952 144.29 16.348 143.375 17.182C142.9 17.6221 142.309 17.9927 141.603 18.2939C140.838 18.6182 140.074 18.7803 139.309 18.7803C138.278 18.7803 137.404 18.4271 136.686 17.7205C135.979 17.014 135.626 16.0932 135.626 14.9581C135.626 13.5798 136.089 12.4621 137.016 11.605C137.942 10.7479 138.979 10.3193 140.126 10.3193C141.018 10.3193 141.724 10.5047 142.245 10.8753C142.767 11.2459 143.027 11.7324 143.027 12.3347C143.027 12.7285 142.888 13.0702 142.61 13.3597C142.101 13.8694 141.481 14.1242 140.751 14.1242C140.925 13.5451 141.012 13.0991 141.012 12.7864Z" fill="#F76800"/>
<path d="M130.713 14.7844C131.431 14.6338 131.963 14.3443 132.311 13.9157C132.67 13.4871 132.849 13.076 132.849 12.6822C132.849 12.2768 132.739 12.0046 132.519 11.8656C132.311 11.715 132.079 11.6397 131.824 11.6397C131.28 11.6397 130.799 11.9467 130.382 12.5605C129.977 13.1628 129.774 13.8867 129.774 14.7323C129.774 15.5662 129.971 16.1917 130.365 16.6086C130.77 17.014 131.268 17.2167 131.859 17.2167C132.728 17.2167 133.562 16.9156 134.361 16.3133C135.16 15.711 135.809 14.9234 136.307 13.9504C136.562 14.1937 136.793 14.4948 137.002 14.8539C136.62 15.7226 135.942 16.5739 134.969 17.4078C134.483 17.8132 133.903 18.1433 133.232 18.3981C132.571 18.6529 131.888 18.7803 131.182 18.7803C130.023 18.7803 129.108 18.4271 128.437 17.7205C127.718 16.9561 127.359 15.9774 127.359 14.7844C127.359 13.5914 127.805 12.549 128.697 11.6571C129.601 10.7653 130.678 10.3193 131.929 10.3193C132.821 10.3193 133.544 10.5162 134.1 10.91C134.656 11.2923 134.94 11.8135 134.952 12.4737C134.952 13.3655 134.593 14.0894 133.875 14.6454C133.168 15.2014 132.195 15.5894 130.956 15.8094L130.713 14.7844Z" fill="#F76800"/>
<path d="M123.424 16.73L123.84 12.8557C123.84 12.543 123.759 12.2824 123.597 12.0739C123.435 11.8654 123.163 11.7612 122.781 11.7612C122.41 11.7612 122.092 11.9291 121.825 12.265C121.57 12.5893 121.408 13.0005 121.339 13.4985C120.922 16.6721 120.702 18.3979 120.678 18.6759H118.333L119.289 10.4929C119.775 10.3655 120.146 10.3018 120.4 10.3018C121.177 10.3018 121.582 10.5855 121.617 11.1531C122.184 10.5971 122.862 10.3191 123.649 10.3191C124.449 10.3191 125.074 10.516 125.526 10.9098C125.977 11.3036 126.203 11.8017 126.203 12.404C126.203 12.5661 126.169 12.8731 126.099 13.3248C125.833 15.0853 125.699 16.1104 125.699 16.3999C125.699 16.9327 125.879 17.1991 126.238 17.1991C127.026 17.1991 127.622 16.3768 128.028 14.7321C128.421 15.149 128.659 15.4791 128.74 15.7224C128.126 17.7609 127.06 18.7801 125.543 18.7801C124.825 18.7801 124.292 18.5601 123.945 18.1199C123.597 17.6798 123.424 17.2165 123.424 16.73Z" fill="#F76800"/>
<path d="M114.415 16.73L114.832 12.8557C114.832 12.543 114.751 12.2824 114.588 12.0739C114.426 11.8654 114.154 11.7612 113.772 11.7612C113.401 11.7612 113.083 11.9291 112.816 12.265C112.562 12.5893 112.399 13.0005 112.33 13.4985C111.913 16.6721 111.693 18.3979 111.67 18.6759H109.324L110.28 10.4929C110.766 10.3655 111.137 10.3018 111.392 10.3018C112.168 10.3018 112.573 10.5855 112.608 11.1531C113.175 10.5971 113.853 10.3191 114.641 10.3191C115.44 10.3191 116.065 10.516 116.517 10.9098C116.969 11.3036 117.195 11.8017 117.195 12.404C117.195 12.5661 117.16 12.8731 117.09 13.3248C116.824 15.0853 116.691 16.1104 116.691 16.3999C116.691 16.9327 116.87 17.1991 117.229 17.1991C118.017 17.1991 118.613 16.3768 119.019 14.7321C119.413 15.149 119.65 15.4791 119.731 15.7224C119.117 17.7609 118.052 18.7801 116.534 18.7801C115.816 18.7801 115.283 18.5601 114.936 18.1199C114.588 17.6798 114.415 17.2165 114.415 16.73Z" fill="#F76800"/>
<path d="M104.989 10.3193C106.054 10.3193 106.94 10.661 107.647 11.3444C108.365 12.0278 108.724 12.8617 108.724 13.8462C108.724 15.3403 108.284 16.5391 107.404 17.4426C106.535 18.3344 105.481 18.7803 104.242 18.7803C103.002 18.7803 102.018 18.4271 101.288 17.7205C100.57 17.014 100.211 16.1395 100.211 15.0971C100.211 13.6377 100.657 12.4795 101.549 11.6224C102.452 10.7537 103.599 10.3193 104.989 10.3193ZM104.641 11.7266C104.097 11.7266 103.639 12.0393 103.269 12.6648C102.898 13.2902 102.695 14.0779 102.661 15.0276C102.661 15.6994 102.794 16.2554 103.06 16.6955C103.338 17.1356 103.755 17.3557 104.311 17.3557C104.867 17.3557 105.33 17.0488 105.701 16.4349C106.083 15.821 106.274 15.1203 106.274 14.3327C106.274 13.5451 106.141 12.9196 105.875 12.4563C105.608 11.9698 105.197 11.7266 104.641 11.7266Z" fill="#F76800"/>
<path d="M97.7306 12.7864C97.7306 12.0335 97.3947 11.6571 96.7229 11.6571C96.2249 11.6571 95.7789 11.9409 95.3851 12.5084C94.9682 13.1223 94.7597 13.8404 94.7597 14.6628C94.7597 15.4851 94.9392 16.1222 95.2983 16.5739C95.6689 17.014 96.1727 17.2341 96.8098 17.2341C97.5742 17.2341 98.3792 16.9214 99.2247 16.2959C100.082 15.6704 100.771 14.8944 101.292 13.9678C101.524 14.1416 101.75 14.4601 101.97 14.9234C101.634 15.5952 101.008 16.348 100.093 17.182C99.6185 17.6221 99.0278 17.9927 98.3213 18.2939C97.5568 18.6182 96.7924 18.7803 96.028 18.7803C94.9971 18.7803 94.1226 18.4271 93.4045 17.7205C92.698 17.014 92.3447 16.0932 92.3447 14.9581C92.3447 13.5798 92.808 12.4621 93.7346 11.605C94.6612 10.7479 95.6979 10.3193 96.8445 10.3193C97.7364 10.3193 98.4429 10.5047 98.9641 10.8753C99.4853 11.2459 99.7459 11.7324 99.7459 12.3347C99.7459 12.7285 99.6069 13.0702 99.329 13.3597C98.8193 13.8694 98.1997 14.1242 97.47 14.1242C97.6437 13.5451 97.7306 13.0991 97.7306 12.7864Z" fill="#F76800"/>
</svg>
