<svg width="836" height="126" viewBox="0 0 836 126" fill="none" xmlns="http://www.w3.org/2000/svg">
<path d="M44.759 41.908L55.2222 36.3632C55.2222 36.3632 55.9198 35.9011 55.4547 34.977C54.9897 34.0528 49.4093 20.4218 28.0179 21.1149C6.62642 21.808 0.581016 37.9804 0.581016 45.8356V68.2459C0.581016 68.2459 -0.814079 93.6597 28.2504 95.2769C28.2504 95.2769 48.7118 96.8942 55.6872 81.1838C55.6872 81.1838 56.1523 80.4907 55.2222 79.7976L44.0615 74.2528C44.0615 74.2528 43.3639 73.7907 42.6664 74.7149C42.2013 75.8701 39.1786 82.339 29.6455 82.339C20.1123 82.339 14.997 75.408 14.997 68.708V47.4528C14.997 47.4528 14.997 33.8218 29.6455 33.8218C38.7136 33.8218 41.7363 39.5977 42.6664 41.677C42.8989 41.908 43.3639 43.0632 44.759 41.908Z" fill="#597786"/>
<path d="M89.6333 21.3462C60.8014 21.3462 60.3364 46.76 60.3364 48.1462V68.2462C60.3364 68.2462 59.8713 95.0462 89.4008 95.0462C118.233 95.0462 118.465 69.6324 118.465 68.2462V48.1462C118.698 48.1462 118.93 21.3462 89.6333 21.3462ZM104.049 68.9393C104.049 74.4841 100.097 82.5703 89.4008 82.5703C78.9376 82.5703 74.7523 74.4841 74.7523 68.9393V47.6841C74.7523 43.9876 77.31 34.0531 89.4008 34.0531C95.4462 34.0531 99.1665 36.5945 101.259 39.5979C103.352 42.6014 104.049 45.8358 104.049 47.9151V68.9393Z" fill="#597786"/>
<path d="M292.388 21.1152C292.388 21.1152 283.553 20.8842 270.764 25.5048L268.904 26.1979C268.439 26.429 268.207 26.891 268.439 27.3531L272.16 37.7497C272.16 37.7497 272.392 38.9048 273.787 38.2117C275.182 37.7497 283.32 33.8221 292.621 33.8221C304.479 33.8221 306.804 41.2152 306.804 49.9945C306.804 49.9945 300.061 44.4497 290.296 44.4497C276.577 44.4497 264.021 53.229 264.021 69.8634C264.021 80.26 270.067 95.2772 290.528 95.2772C290.528 95.2772 300.061 95.7393 307.502 89.5014V92.9669C307.502 92.9669 307.502 93.66 308.199 93.66C308.897 93.66 319.36 93.66 319.36 93.66C319.36 93.66 320.058 93.66 320.058 92.9669C320.058 92.2738 320.058 47.6841 320.058 47.6841C320.058 47.6841 319.825 21.1152 292.388 21.1152ZM291.923 83.0324C284.948 83.0324 278.205 78.1807 278.205 69.8634C278.205 63.8565 282.158 56.6945 291.923 56.6945C303.782 56.6945 306.572 65.2428 306.572 69.4014C306.572 75.4083 302.852 83.0324 291.923 83.0324Z" fill="#597786"/>
<path d="M389.813 48.1456V92.9662C389.813 93.4283 389.348 94.1214 388.65 94.1214H375.862C375.397 94.1214 374.7 93.6593 374.7 92.9662V47.6835C374.7 42.1387 370.747 34.0525 360.051 34.0525C349.355 34.0525 345.403 42.1387 345.403 47.6835V92.9662C345.403 93.4283 344.938 94.1214 344.24 94.1214H331.452C330.987 94.1214 330.289 93.6593 330.289 92.9662V23.4249C330.289 22.9628 330.754 22.2697 331.452 22.2697H343.31C343.775 22.2697 344.007 22.7318 344.007 23.4249V28.2766C351.448 20.1904 363.539 20.8835 363.539 20.8835C379.117 21.3456 389.813 31.9731 389.813 48.1456Z" fill="#597786"/>
<path d="M464.681 21.5768H463.053C460.263 21.5768 453.985 22.732 449.102 27.8147C449.102 27.8147 442.359 21.1147 428.176 21.1147C411.9 21.1147 399.111 30.8182 399.111 46.7596C399.111 52.3044 400.971 62.0078 410.04 68.2458C410.04 68.2458 399.576 73.0975 399.576 86.4975V92.7354C399.576 93.1975 400.041 93.8906 400.739 93.8906H442.824C448.172 93.8906 451.427 98.0492 451.427 102.208C451.427 102.208 452.125 108.446 443.522 113.297C443.522 113.297 442.824 113.76 443.289 114.684C443.754 115.377 449.102 124.849 449.102 124.849C449.102 124.849 449.567 125.542 450.497 125.08C450.497 125.08 464.681 118.842 464.681 102.208C464.681 94.3526 459.333 81.6458 443.289 81.6458H414.225C414.225 81.6458 415.387 73.0975 426.083 73.0975H429.803C446.545 73.0975 458.17 62.0078 458.17 48.1458C458.17 48.1458 458.403 41.4458 455.845 35.9009C455.845 35.9009 459.798 33.1285 465.378 33.5906C465.378 33.5906 466.541 33.5906 466.541 32.4354V21.8078C465.611 22.2699 465.146 21.5768 464.681 21.5768ZM427.943 60.6216C420.503 60.6216 413.992 55.7699 413.992 47.4527C413.992 41.4458 418.178 34.2837 427.943 34.2837C440.034 34.2837 442.824 42.832 442.824 46.9906C443.289 53.2285 439.569 60.6216 427.943 60.6216Z" fill="#597786"/>
<path d="M185.662 22.7321H172.873C172.408 22.7321 171.711 23.1942 171.711 23.8873V69.17C171.711 74.7148 167.758 82.801 157.062 82.801C146.599 82.801 142.414 74.7148 142.414 69.17V23.4252C142.414 22.9631 141.949 22.27 141.716 22.27H128.928C128.463 22.27 128.23 22.7321 128.23 23.4252V68.2459C128.23 84.4183 138.926 95.0458 153.342 95.0458C153.342 95.0458 165.665 95.7389 172.873 87.6527V92.7355C172.873 93.1976 173.339 93.8907 174.036 93.8907H185.894C186.359 93.8907 186.592 93.4286 186.592 92.7355V23.4252C186.592 22.9631 186.127 22.7321 185.662 22.7321Z" fill="#597786"/>
<path d="M230.306 21.3462C221.238 21.3462 215.425 24.8117 211.472 28.7393V23.4255C211.472 22.9634 211.007 22.2703 210.775 22.2703H198.916C198.451 22.5014 198.219 22.9634 198.219 23.4255V122.539C198.219 123.001 198.684 123.232 198.916 123.232H211.705C212.17 123.232 212.402 123.001 212.402 122.539C212.402 122.539 212.635 105.212 212.402 88.8082C216.355 92.5048 222.633 95.2772 230.538 95.2772C238.444 95.2772 244.722 92.5048 249.14 87.6531C253.557 82.8013 256.115 76.1013 256.115 68.4772V48.3772C256.115 33.822 247.512 21.3462 230.306 21.3462ZM241.467 68.7082C241.467 74.2531 237.514 82.3393 226.818 82.3393C216.355 82.3393 212.17 74.2531 212.17 68.7082V47.4531C212.17 43.7565 214.727 33.822 226.818 33.822C232.864 33.822 236.584 36.1324 238.676 39.3669C240.769 42.1393 241.467 45.6048 241.467 47.6841V68.7082Z" fill="#597786"/>
<path d="M815.443 77.8248H807.102L809.369 58.5131H792.143L793.049 50.7159H810.276L812.452 31.6763H820.702L818.526 50.7159H835.843L834.936 58.5131H817.619L815.443 77.8248Z" fill="#F76800"/>
<path d="M771.068 31.0729C771.068 31.4356 770.252 37.9332 768.62 50.5659H782.616L781.948 57.5471H767.714L767.442 59.8137C774.513 65.7372 778.049 72.2046 778.049 79.216C778.049 84.7164 776.629 88.6754 773.788 91.0932C771.008 93.5109 767.653 94.7198 763.724 94.7198C759.796 94.7198 756.924 93.6922 755.111 91.6371C753.298 89.5216 752.391 86.983 752.391 84.0213C752.391 83.3564 752.452 82.6311 752.573 81.8453L755.383 57.7284L755.02 57.5471H747.677C747.616 56.9427 747.586 55.9756 747.586 54.6458C747.586 53.2556 747.858 51.8956 748.402 50.5659H756.199L759.1 25.905C760.37 25.4215 762.062 25.1797 764.178 25.1797C768.771 25.1797 771.068 27.1441 771.068 31.0729ZM771.975 79.1254C771.975 74.9548 770.162 70.8446 766.535 66.7949C765.447 75.801 764.903 80.9991 764.903 82.3893C764.903 85.1093 765.779 86.4692 767.532 86.4692C768.802 86.4692 769.859 85.895 770.706 84.7466C771.552 83.5377 771.975 81.664 771.975 79.1254Z" fill="#F76800"/>
<path d="M736.456 63.4404C736.456 59.5115 734.703 57.5471 731.197 57.5471C728.598 57.5471 726.271 59.028 724.216 61.9897C722.04 65.1932 720.952 68.9407 720.952 73.2322C720.952 77.5237 721.889 80.848 723.763 83.2053C725.697 85.5022 728.326 86.6506 731.651 86.6506C735.64 86.6506 739.841 85.0186 744.253 81.7547C748.726 78.4907 752.322 74.441 755.042 69.6056C756.251 70.5122 757.43 72.1744 758.578 74.5922C756.825 78.0979 753.561 82.0267 748.786 86.3786C746.308 88.6754 743.225 90.6096 739.538 92.1812C735.549 93.8736 731.56 94.7198 727.571 94.7198C722.191 94.7198 717.628 92.8763 713.88 89.1892C710.193 85.5022 708.35 80.6969 708.35 74.7735C708.35 67.5807 710.767 61.7479 715.603 57.2751C720.438 52.8023 725.848 50.5659 731.832 50.5659C736.486 50.5659 740.173 51.533 742.893 53.4672C745.613 55.4014 746.973 57.94 746.973 61.0831C746.973 63.1381 746.248 64.9212 744.797 66.4323C742.137 69.0918 738.904 70.4216 735.096 70.4216C736.002 67.3994 736.456 65.0723 736.456 63.4404Z" fill="#F76800"/>
<path d="M682.707 73.8668C686.455 73.0811 689.235 71.57 691.049 69.3336C692.922 67.0972 693.859 64.9514 693.859 62.8964C693.859 60.7808 693.285 59.3604 692.136 58.6351C691.049 57.8493 689.84 57.4565 688.51 57.4565C685.669 57.4565 683.161 59.0582 680.985 62.2617C678.869 65.4048 677.811 69.1825 677.811 73.5948C677.811 77.9468 678.839 81.2107 680.894 83.3867C683.01 85.5022 685.609 86.5599 688.691 86.5599C693.224 86.5599 697.576 84.9884 701.747 81.8454C705.918 78.7023 709.302 74.5921 711.901 69.5149C713.231 70.7842 714.44 72.3557 715.528 74.2295C713.533 78.7627 709.998 83.2053 704.92 87.5573C702.382 89.6728 699.359 91.3954 695.854 92.7252C692.408 94.0549 688.842 94.7198 685.155 94.7198C679.111 94.7198 674.336 92.8763 670.83 89.1892C667.083 85.2 665.209 80.0925 665.209 73.8668C665.209 67.6412 667.536 62.2013 672.19 57.5471C676.905 52.893 682.526 50.5659 689.054 50.5659C693.708 50.5659 697.486 51.5935 700.387 53.6485C703.288 55.6432 704.769 58.3631 704.83 61.8084C704.83 66.4625 702.956 70.2402 699.208 73.1415C695.521 76.0428 690.444 78.0676 683.977 79.2161L682.707 73.8668Z" fill="#F76800"/>
<path d="M644.668 84.0212L646.844 63.8029C646.844 62.1709 646.421 60.8109 645.575 59.7229C644.729 58.635 643.308 58.091 641.314 58.091C639.38 58.091 637.717 58.9674 636.327 60.7202C634.997 62.4127 634.151 64.5584 633.789 67.1575C631.613 83.7189 630.464 92.725 630.343 94.1756H618.104L623.09 51.4724C625.629 50.8075 627.563 50.4751 628.893 50.4751C632.942 50.4751 635.058 51.956 635.239 54.9177C638.201 52.0164 641.737 50.5658 645.847 50.5658C650.018 50.5658 653.282 51.5933 655.639 53.6484C657.996 55.7034 659.175 58.3025 659.175 61.4456C659.175 62.2918 658.993 63.8935 658.631 66.2508C657.241 75.4382 656.545 80.7874 656.545 82.2985C656.545 85.0789 657.482 86.4691 659.356 86.4691C663.466 86.4691 666.579 82.1776 668.695 73.5947C670.75 75.7706 671.989 77.4933 672.412 78.7626C669.208 89.4006 663.648 94.7196 655.73 94.7196C651.982 94.7196 649.202 93.5712 647.388 91.2744C645.575 88.9775 644.668 86.5598 644.668 84.0212Z" fill="#F76800"/>
<path d="M597.655 84.0212L599.831 63.8029C599.831 62.1709 599.408 60.8109 598.561 59.7229C597.715 58.635 596.295 58.091 594.3 58.091C592.366 58.091 590.704 58.9674 589.314 60.7202C587.984 62.4127 587.138 64.5584 586.775 67.1575C584.599 83.7189 583.451 92.725 583.33 94.1756H571.09L576.076 51.4724C578.615 50.8075 580.549 50.4751 581.879 50.4751C585.929 50.4751 588.044 51.956 588.226 54.9177C591.187 52.0164 594.723 50.5658 598.833 50.5658C603.004 50.5658 606.268 51.5933 608.625 53.6484C610.982 55.7034 612.161 58.3025 612.161 61.4456C612.161 62.2918 611.98 63.8935 611.617 66.2508C610.227 75.4382 609.532 80.7874 609.532 82.2985C609.532 85.0789 610.469 86.4691 612.342 86.4691C616.453 86.4691 619.565 82.1776 621.681 73.5947C623.736 75.7706 624.975 77.4933 625.398 78.7626C622.195 89.4006 616.634 94.7196 608.716 94.7196C604.968 94.7196 602.188 93.5712 600.375 91.2744C598.561 88.9775 597.655 86.5598 597.655 84.0212Z" fill="#F76800"/>
<path d="M548.466 50.5659C554.027 50.5659 558.651 52.349 562.338 55.9152C566.085 59.4813 567.959 63.8332 567.959 68.9709C567.959 76.7681 565.662 83.024 561.069 87.7386C556.535 92.3927 551.035 94.7198 544.567 94.7198C538.1 94.7198 532.962 92.8763 529.154 89.1892C525.407 85.5022 523.533 80.9387 523.533 75.4988C523.533 67.8829 525.86 61.8386 530.514 57.3658C535.229 52.8325 541.213 50.5659 548.466 50.5659ZM546.653 57.9098C543.812 57.9098 541.424 59.5418 539.49 62.8057C537.556 66.0696 536.498 70.1798 536.317 75.1361C536.317 78.6419 537.012 81.5431 538.402 83.84C539.853 86.1368 542.029 87.2853 544.93 87.2853C547.831 87.2853 550.249 85.6835 552.183 82.48C554.178 79.2765 555.175 75.6197 555.175 71.5095C555.175 67.3994 554.48 64.1355 553.09 61.7177C551.7 59.1791 549.554 57.9098 546.653 57.9098Z" fill="#F76800"/>
<path d="M510.591 63.4404C510.591 59.5115 508.838 57.5471 505.332 57.5471C502.733 57.5471 500.406 59.028 498.351 61.9897C496.175 65.1932 495.087 68.9407 495.087 73.2322C495.087 77.5237 496.024 80.848 497.897 83.2053C499.832 85.5022 502.461 86.6506 505.785 86.6506C509.775 86.6506 513.975 85.0186 518.388 81.7547C522.861 78.4907 526.457 74.441 529.177 69.6056C530.386 70.5122 531.564 72.1744 532.713 74.5922C530.96 78.0979 527.696 82.0267 522.921 86.3786C520.443 88.6754 517.36 90.6096 513.673 92.1812C509.684 93.8736 505.695 94.7198 501.705 94.7198C496.326 94.7198 491.762 92.8763 488.015 89.1892C484.328 85.5022 482.484 80.6969 482.484 74.7735C482.484 67.5807 484.902 61.7479 489.738 57.2751C494.573 52.8023 499.983 50.5659 505.967 50.5659C510.621 50.5659 514.308 51.533 517.028 53.4672C519.748 55.4014 521.108 57.94 521.108 61.0831C521.108 63.1381 520.382 64.9212 518.932 66.4323C516.272 69.0918 513.038 70.4216 509.231 70.4216C510.137 67.3994 510.591 65.0723 510.591 63.4404Z" fill="#F76800"/>
</svg>
